<svg width="1600" height="1600" viewBox="0 0 1600 1600" fill="none" xmlns="http://www.w3.org/2000/svg">
<g clip-path="url(#clip0_203_108)">
<rect width="1600" height="1600" rx="400" fill="url(#paint0_radial_203_108)"/>
<path fill-rule="evenodd" clip-rule="evenodd" d="M431.338 345.624C394.142 322.573 350.589 285.007 349.21 176.304C349.185 169.034 345.313 162.195 339.311 158.665C339.013 158.489 338.721 158.334 338.43 158.179C331.914 154.843 324.463 155.931 319.523 160.959C319.463 161.022 292.377 188.542 259.189 214.902C242.631 228.054 224.61 240.824 208.414 249.428C192.376 258.241 177.664 261.736 171.828 260.303C113.462 250.996 15.3756 275.512 -22.576 294.674C-56.6574 313.356 -90.6675 358.494 -98.924 369.453L-99.1177 369.71C-99.5226 370.001 -99.9763 370.325 -100.476 370.682C-113.598 380.068 -158.235 411.995 -175.27 447.288C-181.662 462.287 -180.286 477.79 -177.739 493.799C-171.313 530.171 -153.478 572.245 -145.411 590.245L-158.374 618.832L-159.679 618.064C-176.107 608.435 -201.835 594.774 -229.901 586.199C-257.809 577.866 -288.971 573.585 -315.721 588.593C-343.927 604.662 -355.528 617.819 -361.438 627.45C-362.471 629.123 -363.281 630.522 -363.852 631.508C-364.001 631.765 -364.133 631.994 -364.25 632.192C-364.629 632.266 -365.163 632.366 -365.899 632.462C-374.678 633.909 -385.487 638.03 -400.302 643.728C-441.789 660.016 -505.066 688.95 -510.599 691.479L-510.61 691.484L-510.613 691.486C-510.856 691.597 -510.983 691.655 -510.988 691.657C-516.062 693.994 -519.591 698.827 -520.487 704.795C-521.426 710.755 -519.65 716.939 -515.664 721.548L-515.648 721.567L-515.585 721.641C-514.814 722.541 -508.508 729.906 -499.406 741.688C-484.838 760.521 -463.514 790.317 -448.875 819.372C-433.593 848.607 -428.189 875.882 -434.134 886.318C-448.911 919.359 -458.152 971.605 -457.561 1027.65C-456.666 1083.54 -446.011 1143.01 -415.458 1188.07C-401.819 1207.91 -389.958 1220.39 -377.443 1227.85C-358.33 1239.79 -339.26 1233.42 -330.607 1228.01L-329.953 1227.65C-326.617 1225.78 -323.987 1224.31 -322.435 1223.6C-320.709 1225.39 -318.319 1228.06 -315.315 1231.41L-315.314 1231.41C-298.011 1250.71 -260.376 1292.69 -212.507 1320.81C-156.978 1354.5 -80.7787 1368.46 -12.3406 1304.49C-9.36441 1301.75 -7.47003 1297.98 -6.88794 1293.72C-3.0293 1265.56 2.92163 1245.46 9.35278 1231.27C19.9315 1208.29 30.9727 1200.95 38.5649 1197.78C39.7312 1197.33 40.8253 1196.96 41.8413 1196.7L54.4307 1223.54C54.1476 1247.39 61.0795 1338.85 158.742 1396.36C177.159 1407.19 198.583 1416.7 223.545 1424.31C307.32 1449.68 351.048 1458.71 384.894 1454.16C413.866 1449.91 431.156 1435.22 451.69 1417.78C455.582 1414.47 459.59 1411.06 463.817 1407.61C504.414 1373.81 528.019 1324.36 546.316 1286.04C555.306 1267.2 563.015 1251.06 570.828 1240.77C577.115 1229.89 621.923 1208.73 661.88 1196.19C700.845 1183.13 736.803 1174.29 739.384 1173.65C739.48 1173.63 739.53 1173.62 739.533 1173.62C745.465 1172.2 750.051 1167.33 751.537 1160.96C753.06 1154.62 751.262 1147.58 746.882 1142.59C746.807 1142.54 723.984 1116.61 702.753 1087.86C692.169 1073.53 682.002 1058.46 675.778 1046.61C672.916 1041.22 670.901 1036.46 669.986 1033.45C672.531 1030.99 674.556 1027.99 675.898 1024.96C682.169 1009.01 678.681 994.763 674.508 978.244C667.561 953.747 654.282 925.095 638.574 899.229C622.596 873.403 605.388 850.638 585.205 838.321C578.333 834.312 570.528 831.357 561.908 831.692C541.284 833.329 491.924 826.344 475.145 815.649C474.381 815.216 473.722 814.795 473.149 814.392C474.745 812.505 477.482 809.801 481.641 806.809C506.52 788.636 525.739 763.678 537.75 737.259C547.634 715.322 552.796 692.344 550.66 670.082C549.329 653.994 542.822 637.589 531.389 625.345C540.112 604.164 553.898 564.078 543.641 521.47C537.477 497.399 528.859 465.375 516.388 435.496C503.754 405.802 487.953 377.122 462.171 361.495C460.146 360.304 458.234 359.312 456.411 358.438C448.545 354.819 440.074 350.762 431.338 345.624ZM-336.557 1141.72C-342.858 1137.28 -282.495 1084.25 -192.874 1097.53C-106.169 1105.82 -41.1862 1141.11 -43.0132 1145.56C-43.6063 1147.89 -54.7764 1145.05 -73.3407 1140.32C-100.646 1133.36 -143.947 1122.33 -193.117 1117.71C-257.853 1108.28 -305.915 1129.38 -326.128 1138.25C-332.368 1140.99 -335.954 1142.57 -336.557 1141.72ZM229.619 1222.82C185.509 1171.9 130.063 1177.12 132.666 1182.42C132.595 1184.35 137.083 1186.02 144.443 1188.76C160.626 1194.79 190.691 1205.99 216.691 1236.44C239.215 1262.37 254.361 1289.76 263.957 1307.11C270.355 1318.68 274.285 1325.79 276.289 1325.02C280.927 1324.45 271.594 1271.57 229.619 1222.82ZM-118.223 855.564C-240.015 722.166 -384.263 722.473 -379.83 737.03C-380.423 738.616 -373.551 741.009 -361.319 745.27C-321.733 759.057 -226.005 792.397 -145.441 881.221C-121.616 907.382 -112.735 944.685 -104.086 981.01C-95.7558 1016 -87.6411 1050.08 -66.5951 1072.43C-33.6772 1120.12 -2.29279 1136.54 -0.00604248 1132.02C1.3725 1129.98 -2.86798 1123.98 -10.1755 1113.63C-18.81 1101.4 -31.7266 1083.1 -44.7151 1058.12C-55.8575 1034.86 -67.6962 1006.33 -72.4635 973C-74.7944 943.912 -87.8935 886.675 -118.223 855.564ZM58.9722 1147.34C59.6725 1145.46 63.1025 1145.99 68.7548 1146.87C81.7634 1148.89 106.543 1152.74 136.91 1133.2C152.672 1126.26 168.954 1113.36 187.342 1098.79C221.259 1071.92 262.345 1039.38 320.562 1028.02C497.322 1004.44 621.651 1107.98 615.396 1112.05C614.658 1116.3 602.263 1111.83 581.03 1104.17C532.336 1086.62 437.159 1052.32 329.467 1067.88C286.096 1075.07 250.446 1099.04 217.317 1121.32C193.697 1137.21 171.358 1152.23 148.417 1159.69C92.3906 1184.8 53.8261 1149.77 58.9722 1147.34ZM296.687 326.756C297.748 327.934 296.694 333.293 294.815 342.838C290.967 362.392 283.661 399.512 284.006 454.245C284.115 460.9 284.276 467.908 284.445 475.232L284.446 475.278L284.446 475.286L284.446 475.296C286.231 552.889 288.83 665.841 238.818 768.744C210.766 836.339 168.021 884.6 131.17 926.205C103.52 957.424 79.1879 984.895 66.8716 1013.98C42.2883 1058.69 35.0759 1096.8 31.3253 1116.61C29.5394 1126.05 28.5385 1131.34 26.8209 1131.22C22.0534 1132.81 10.2744 1075.47 43.2774 999.636C57.2528 960.733 85.0309 926.349 114.869 889.415C147.572 848.935 182.749 805.392 204.942 749.48C247.545 661.034 251.766 570.868 255.316 495.027L255.316 495.023L255.317 495.006C256.041 479.548 256.737 464.685 257.724 450.554C263.534 367.863 291.923 321.641 296.687 326.756ZM-108.714 749.821C-107.473 746.634 -49.4276 781.469 -8.29657 857.458C36.3755 937.233 1.07715 1010.53 -4.40686 1002.59C-5.04022 1002.45 -4.60815 999.734 -3.84009 994.899C-0.79071 975.702 7.55548 923.16 -24.4501 866.352C-47.4081 823.472 -75.8772 791.115 -93.2247 771.399C-103.955 759.203 -110.43 751.843 -108.714 749.821ZM30.371 808.747C6.43866 687.192 -80.5471 628.84 -79.8415 633.949C-81.2662 635.173 -77.0168 640.32 -69.5943 649.31L-69.5935 649.311C-48.9353 674.332 -3.69983 729.121 12.2105 811.965C27.8708 890.777 19.3929 958.952 15.2679 992.123C13.5981 1005.55 12.6417 1013.24 14.2883 1013.58C18.0655 1016.81 53.5132 927.01 30.371 808.747ZM-51.1331 570.605C-51.612 566.142 31.6959 620.628 61.9405 736.177C91.8512 849.547 61.364 939.275 57.3412 936.066C55.7483 935.829 56.2759 928.499 57.1974 915.693C59.5179 883.449 64.336 816.496 44.0919 740.686C24.2987 663.575 -19.0319 612.005 -39.8271 587.255C-47.9521 577.585 -52.6369 572.01 -51.1331 570.605ZM103.824 689.178C73.2692 587.643 -2.01904 544.005 -1.21588 547.337C-3.05988 549.07 2.09082 555.025 10.8726 565.178C30.3149 587.655 67.5551 630.709 86.0933 694.087C105.992 761.842 94.5401 820.282 89.2885 847.08C87.3845 856.796 86.2955 862.353 87.8115 862.686C90.8923 867.556 133.122 791.263 103.824 689.178ZM-12.7118 421.536C-12.3435 416.662 72.7204 476.545 110.239 596.604C148.243 714.238 131.659 813.086 127.017 811C125.407 810.928 124.935 802.324 124.111 787.333C122.165 751.9 118.26 680.78 92.743 602.279C67.2489 519.974 20.7682 464.369 -1.03076 438.291C-9.25458 428.453 -13.9656 422.818 -12.7118 421.536ZM160.663 583.637C133.587 468.944 50.3375 415.996 51.1775 420.357C49.5821 421.783 54.2152 427.291 62.2378 436.828C82.7007 461.155 125.214 511.695 142.663 587.578C160.44 662.654 152.026 727.906 148.009 759.052C146.44 771.217 145.542 778.18 147.139 778.492C150.812 782.09 186.881 696.158 160.663 583.637ZM115.895 411.362C117.864 408.372 171.52 457.747 202.831 543.381C236.355 631.01 205.187 704.604 199.256 698.487C198.574 698.249 199.014 694.833 199.791 688.793C202.56 667.272 209.614 612.443 185.478 549.437C167.7 500.348 143.405 460.887 128.615 436.864C119.431 421.946 113.912 412.981 115.895 411.362ZM214.777 1146.67C212.162 1141.37 267.62 1136.16 311.73 1187.07C353.705 1235.83 363.025 1288.69 358.399 1289.28C356.391 1290.04 352.461 1282.93 346.065 1271.36C336.472 1254 321.33 1226.61 298.802 1200.69C272.795 1170.23 242.735 1159.04 226.554 1153.01C219.197 1150.27 214.709 1148.6 214.777 1146.67ZM385.677 1119.48C318.448 1086.12 264.796 1115.81 267.463 1117.78C267.743 1120.54 274.062 1120.33 284.499 1120L284.501 1120C304.865 1119.34 340.902 1118.18 378.349 1137.52C418.367 1159.16 439.639 1195.38 450.373 1213.66C454.832 1221.25 457.473 1225.75 458.884 1224.82C463.832 1226.47 452.195 1156.74 385.677 1119.48ZM-219.658 1000.18C-314.247 957.21 -390.959 1007.8 -382.058 1015.28C-381.912 1015.39 -380.827 1014.96 -378.873 1014.18C-364.563 1008.48 -303.682 984.205 -224.408 1019.37C-172.371 1038.67 -128.054 1062.48 -100.154 1077.46C-81.2026 1087.65 -69.8259 1093.76 -68.7497 1091.62C-66.1297 1087.86 -128.415 1034.15 -219.658 1000.18ZM-381.004 954.988C-390.237 948.83 -317.945 896.251 -231.293 945.135C-148.852 984.386 -97.3224 1042.16 -100.358 1045.35C-101.645 1047.31 -111.143 1040.75 -126.975 1029.82C-151.22 1013.08 -190.319 986.082 -237.517 963.72C-305.826 925.805 -360.155 947.185 -376.193 953.496C-379.137 954.655 -380.791 955.305 -381.004 954.988ZM219.023 895.768C99.4866 933.847 64.1192 1048.22 70.4299 1046.63C71.4055 1047.59 74.0588 1043.44 78.8094 1036C95.5723 1009.75 138.45 942.621 225.883 915.042C301.249 889.483 371.493 887.958 406.996 887.187C422.448 886.852 431.32 886.659 431.168 884.69C432.492 880.346 332.893 857.447 219.023 895.768ZM82.8982 1053.95C78.4816 1054.52 116.542 970.555 213.972 950.331C308.895 931.193 384.841 971.368 382.107 975.28C381.908 977.089 375.17 975.786 363.503 973.531C335.834 968.183 280.44 957.475 218.796 970.207C154.536 983.03 114.84 1024.03 95.8507 1043.64C88.5265 1051.21 84.2828 1055.59 82.8982 1053.95ZM162.997 1010.04C117.944 1026.09 94.1369 1059.63 97.4094 1062.49C99.4753 1064.94 106.909 1060.68 118.538 1054.02C131.162 1046.8 148.73 1036.74 169.741 1029.37C193.094 1020.48 215.139 1017.8 229.645 1016.03C240.153 1014.75 246.705 1013.96 246.932 1011.63C248.375 1006.33 207.876 993.206 162.997 1010.04Z" fill="url(#paint1_radial_203_108)"/>
<rect x="1084" y="329" width="246.667" height="671" rx="40" transform="rotate(90 1084 329)" fill="white"/>
<rect x="963" y="665.667" width="246.667" height="550" rx="40" transform="rotate(90 963 665.667)" fill="white"/>
<rect x="1299.34" y="1078.57" width="246.667" height="856.517" rx="40" transform="rotate(100 1299.34 1078.57)" fill="white"/>
</g>
<defs>
<radialGradient id="paint0_radial_203_108" cx="0" cy="0" r="1" gradientUnits="userSpaceOnUse" gradientTransform="translate(1580) rotate(134.64) scale(2248.64 2298.68)">
<stop stop-color="#2151F2"/>
<stop offset="1" stop-color="#5179FF"/>
</radialGradient>
<radialGradient id="paint1_radial_203_108" cx="0" cy="0" r="1" gradientUnits="userSpaceOnUse" gradientTransform="translate(736.16 156.266) rotate(134.056) scale(1807.55 1846.91)">
<stop stop-color="#2151F2"/>
<stop offset="1" stop-color="#5179FF"/>
</radialGradient>
<clipPath id="clip0_203_108">
<rect width="1600" height="1600" rx="400" fill="white"/>
</clipPath>
</defs>
</svg>
