<svg width="1600" height="1600" viewBox="0 0 1600 1600" fill="none" xmlns="http://www.w3.org/2000/svg">
<rect width="1600" height="1600" rx="400" fill="url(#paint0_radial_212_13)"/>
<path d="M412.41 1339.49H389.91V1256.24H298.41V1339.49H275.91V1160.99H298.41V1236.49H389.91V1160.99H412.41V1339.49ZM573.213 1339.49L551.713 1284.24H480.963L459.713 1339.49H436.963L506.713 1160.24H526.963L596.463 1339.49H573.213ZM524.963 1210.24C524.463 1208.91 523.63 1206.49 522.463 1202.99C521.296 1199.49 520.13 1195.91 518.963 1192.24C517.963 1188.41 517.13 1185.49 516.463 1183.49C515.296 1188.66 513.963 1193.74 512.463 1198.74C510.963 1203.58 509.713 1207.41 508.713 1210.24L488.463 1264.24H544.963L524.963 1210.24ZM671.131 1339.49H606.631V1326.49L627.631 1321.74V1178.99L606.631 1173.99V1160.99H671.131V1173.99L650.131 1178.99V1321.74L671.131 1326.49V1339.49ZM836.098 1339.49H809.598L746.348 1254.24L728.098 1270.24V1339.49H705.598V1160.99H728.098V1248.99C733.098 1243.33 738.181 1237.66 743.348 1231.99C748.514 1226.33 753.681 1220.66 758.848 1214.99L807.098 1160.99H833.348L762.598 1238.74L836.098 1339.49ZM1011.25 1249.99C1011.25 1268.49 1008.08 1284.66 1001.75 1298.49C995.583 1312.16 986.417 1322.83 974.25 1330.49C962.083 1338.16 947 1341.99 929 1341.99C910.5 1341.99 895.083 1338.16 882.75 1330.49C870.583 1322.83 861.5 1312.08 855.5 1298.24C849.5 1284.41 846.5 1268.24 846.5 1249.74C846.5 1231.41 849.5 1215.41 855.5 1201.74C861.5 1188.08 870.583 1177.41 882.75 1169.74C895.083 1162.08 910.583 1158.24 929.25 1158.24C947.083 1158.24 962.083 1162.08 974.25 1169.74C986.417 1177.24 995.583 1187.91 1001.75 1201.74C1008.08 1215.41 1011.25 1231.49 1011.25 1249.99ZM870.25 1249.99C870.25 1272.49 875 1290.24 884.5 1303.24C894 1316.08 908.833 1322.49 929 1322.49C949.333 1322.49 964.167 1316.08 973.5 1303.24C982.833 1290.24 987.5 1272.49 987.5 1249.99C987.5 1227.49 982.833 1209.91 973.5 1197.24C964.167 1184.41 949.417 1177.99 929.25 1177.99C909.083 1177.99 894.167 1184.41 884.5 1197.24C875 1209.91 870.25 1227.49 870.25 1249.99ZM1099.74 1339.49H1077.24V1180.74H1021.49V1160.99H1155.24V1180.74H1099.74V1339.49ZM1333.03 1249.99C1333.03 1268.49 1329.86 1284.66 1323.53 1298.49C1317.36 1312.16 1308.19 1322.83 1296.03 1330.49C1283.86 1338.16 1268.78 1341.99 1250.78 1341.99C1232.28 1341.99 1216.86 1338.16 1204.53 1330.49C1192.36 1322.83 1183.28 1312.08 1177.28 1298.24C1171.28 1284.41 1168.28 1268.24 1168.28 1249.74C1168.28 1231.41 1171.28 1215.41 1177.28 1201.74C1183.28 1188.08 1192.36 1177.41 1204.53 1169.74C1216.86 1162.08 1232.36 1158.24 1251.03 1158.24C1268.86 1158.24 1283.86 1162.08 1296.03 1169.74C1308.19 1177.24 1317.36 1187.91 1323.53 1201.74C1329.86 1215.41 1333.03 1231.49 1333.03 1249.99ZM1192.03 1249.99C1192.03 1272.49 1196.78 1290.24 1206.28 1303.24C1215.78 1316.08 1230.61 1322.49 1250.78 1322.49C1271.11 1322.49 1285.94 1316.08 1295.28 1303.24C1304.61 1290.24 1309.28 1272.49 1309.28 1249.99C1309.28 1227.49 1304.61 1209.91 1295.28 1197.24C1285.94 1184.41 1271.19 1177.99 1251.03 1177.99C1230.86 1177.99 1215.94 1184.41 1206.28 1197.24C1196.78 1209.91 1192.03 1227.49 1192.03 1249.99Z" fill="white"/>
<rect x="1013" y="283" width="170" height="462" rx="40" transform="rotate(90 1013 283)" fill="white"/>
<rect x="930" y="514" width="170" height="379" rx="40" transform="rotate(90 930 514)" fill="white"/>
<rect x="1161" y="798.496" width="169.668" height="589.15" rx="40" transform="rotate(100 1161 798.496)" fill="white"/>
<defs>
<radialGradient id="paint0_radial_212_13" cx="0" cy="0" r="1" gradientUnits="userSpaceOnUse" gradientTransform="translate(1580) rotate(134.64) scale(2248.64 2298.68)">
<stop stop-color="#2151F2"/>
<stop offset="1" stop-color="#5179FF"/>
</radialGradient>
</defs>
</svg>
